0
SECTION
2
HEADER
9
$INSUNITS
70
4
9
$ACADVER
1
AC1014
9
$HANDSEED
5
FFFF
0
ENDSEC
0
SECTION
2
TABLES
0
TABLE
2
VPORT
5
8
100
AcDbSymbolTable
0
ENDTAB
0
TABLE
2
LTYPE
5
5
100
AcDbSymbolTable
0
LTYPE
5
14
100
AcDbSymbolTableRecord
100
AcDbLinetypeTableRecord
2
BYBLOCK
70
0
0
LTYPE
5
15
100
AcDbSymbolTableRecord
100
AcDbLinetypeTableRecord
2
BYLAYER
70
0
0
ENDTAB
0
TABLE
2
LAYER
5
2
100
AcDbSymbolTable
70
2
0
LAYER
5
50
100
AcDbSymbolTableRecord
100
AcDbLayerTableRecord
2
0
70
0
6
CONTINUOUS
0
ENDTAB
0
TABLE
2
STYLE
5
3
100
AcDbSymbolTable
70
1
0
STYLE
5
11
100
AcDbSymbolTableRecord
100
AcDbTextStyleTableRecord
2
STANDARD
70
0
0
ENDTAB
0
TABLE
2
VIEW
5
6
100
AcDbSymbolTable
70
0
0
ENDTAB
0
TABLE
2
UCS
5
7
100
AcDbSymbolTable
70
0
0
ENDTAB
0
TABLE
2
APPID
5
9
100
AcDbSymbolTable
70
2
0
APPID
5
12
100
AcDbSymbolTableRecord
100
AcDbRegAppTableRecord
2
ACAD
70
0
0
ENDTAB
0
TABLE
2
DIMSTYLE
5
A
100
AcDbSymbolTable
70
1
0
ENDTAB
0
TABLE
2
BLOCK_RECORD
5
1
100
AcDbSymbolTable
70
1
0
BLOCK_RECORD
5
1F
100
AcDbSymbolTableRecord
100
AcDbBlockTableRecord
2
*MODEL_SPACE
0
BLOCK_RECORD
5
1B
100
AcDbSymbolTableRecord
100
AcDbBlockTableRecord
2
*PAPER_SPACE
0
ENDTAB
0
ENDSEC
0
SECTION
2
BLOCKS
0
BLOCK
5
20
100
AcDbEntity
100
AcDbBlockBegin
2
*MODEL_SPACE
0
ENDBLK
5
21
100
AcDbEntity
100
AcDbBlockEnd
0
BLOCK
5
1C
100
AcDbEntity
100
AcDbBlockBegin
2
*PAPER_SPACE
0
ENDBLK
5
1D
100
AcDbEntity
100
AcDbBlockEnd
0
ENDSEC
0
SECTION
2
ENTITIES
0
LWPOLYLINE
5
100
100
AcDbEntity
8
OUTER_PROFILES
100
AcDbPolyline
90
10
70
1
43
0.0
10
219.78162322732192
20
239.5
10
219.78162322732192
20
223.49999999999994
10
240.64534464488537
20
223.49999999999997
10
240.64534464488534
20
14.999999999999989
10
256.39534464488531
20
14.999999999999984
10
256.39534464488531
20
-3.2708699514260684e-14
10
0
20
0
10
-3.5527136788005009e-14
20
15.000000000000018
10
15.749999999999975
20
15
10
15.749999999999993
20
239.50000000000003
0
CIRCLE
5
101
100
AcDbEntity
8
INTERIOR_PROFILES
100
AcDbCircle
10
-231.53034464489437
20
216.49999999999994
30
0
40
1.7500000000000071
210
0
220
0
230
-1
0
CIRCLE
5
102
100
AcDbEntity
8
INTERIOR_PROFILES
100
AcDbCircle
10
-11.365000000000585
20
7.2727272727272583
30
0
40
1.7499999999999982
210
0
220
0
230
-1
0
CIRCLE
5
103
100
AcDbEntity
8
INTERIOR_PROFILES
100
AcDbCircle
10
-233.03034464488476
20
7.49999999999996
30
0
40
2.7499999999999858
210
0
220
0
230
-1
0
CIRCLE
5
104
100
AcDbEntity
8
INTERIOR_PROFILES
100
AcDbCircle
10
-245.03034464488474
20
7.272727272727229
30
0
40
1.7500000000000071
210
0
220
0
230
-1
0
CIRCLE
5
105
100
AcDbEntity
8
INTERIOR_PROFILES
100
AcDbCircle
10
110.12229352492312
20
232.24999999998548
30
0
40
3.0000000000000071
210
0
220
0
230
1
0
LWPOLYLINE
5
106
100
AcDbEntity
8
INTERIOR_PROFILES
100
AcDbPolyline
90
4
70
1
43
0.0
10
220.86400848366566
20
213.49999999999997
10
220.86400848366566
20
219.5
10
218.36400848366566
20
219.49999999999994
10
218.36400848366566
20
213.49999999999994
0
CIRCLE
5
107
100
AcDbEntity
8
INTERIOR_PROFILES
100
AcDbCircle
10
-23.365000000000578
20
7.4999999999999867
30
0
40
2.7499999999999991
210
0
220
0
230
-1
0
CIRCLE
5
108
100
AcDbEntity
8
INTERIOR_PROFILES
100
AcDbCircle
10
-24.864999999990989
20
216.5
30
0
40
1.7499999999999982
210
0
220
0
230
-1
0
LWPOLYLINE
5
109
100
AcDbEntity
8
INTERIOR_PROFILES
100
AcDbPolyline
90
4
70
1
43
0.0
10
180.11400848366466
20
209.49999999999994
10
206.61400848366469
20
209.49999999999994
10
206.61400848366469
20
227.99999999999997
10
180.11400848366466
20
227.99999999999997
0
CIRCLE
5
110
100
AcDbEntity
8
INTERIOR_PROFILES
100
AcDbCircle
10
163.69767232244268
20
7.4999999999999574
30
0
40
2.7499999999999858
210
0
220
0
230
1
0
CIRCLE
5
111
100
AcDbEntity
8
INTERIOR_PROFILES
100
AcDbCircle
10
92.697672322442656
20
7.4999999999999662
30
0
40
2.7500000000000036
210
0
220
0
230
1
0
LWPOLYLINE
5
112
100
AcDbEntity
8
INTERIOR_PROFILES
100
AcDbPolyline
90
4
70
1
43
0.0
10
49.781336161220722
20
209.49999999999994
10
76.281336161220722
20
209.49999999999994
10
76.281336161220722
20
227.99999999999997
10
49.781336161220722
20
227.99999999999997
0
CIRCLE
5
113
100
AcDbEntity
8
INTERIOR_PROFILES
100
AcDbCircle
10
163.69767232244371
20
231.99999999999994
30
0
40
5.2499999999999858
210
0
220
0
230
1
0
CIRCLE
5
114
100
AcDbEntity
8
INTERIOR_PROFILES
100
AcDbCircle
10
146.27305111997021
20
232.24999999999994
30
0
40
3.0000000000000071
210
0
220
0
230
1
0
LWPOLYLINE
5
115
100
AcDbEntity
8
INTERIOR_PROFILES
100
AcDbPolyline
90
4
70
1
43
0.0
10
38.031336161219755
20
219.49999999999994
10
35.531336161219755
20
219.5
10
35.531336161219755
20
213.49999999999997
10
38.031336161219755
20
213.49999999999994
0
LINE
5
116
100
AcDbEntity
8
BEND
100
AcDbLine
10
30.948168080610703
20
-2.5390207340972763e-14
30
-9.9404849099233365e-13
11
30.948168080610756
21
239.50000000000003
31
-9.4995396885559344e-13
0
LINE
5
117
100
AcDbEntity
8
BEND
100
AcDbLine
10
225.44717656427466
20
223.49999999999994
30
-7.2252569479701134e-12
11
225.44717656427466
21
-3.5527136788005009e-14
31
-7.2719107998357811e-12
0
LINE
5
118
100
AcDbEntity
8
BEND
100
AcDbLine
10
85.114504241832023
20
-3.2273646770705156e-14
30
-3.7315568502542943e-12
11
85.114504241832066
21
239.5
31
-3.6782661450722876e-12
0
LINE
5
119
100
AcDbEntity
8
BEND
100
AcDbLine
10
171.28084040305333
20
239.5
30
-6.4601944912811136e-12
11
171.28084040305328
21
-3.5527136788005009e-14
31
-6.5134851964631211e-12
0
LINE
5
120
100
AcDbEntity
8
BEND_EXTENT
100
AcDbLine
10
226.16534464488524
20
-5.1910014071800385e-14
30
-7.2589723733997455e-12
11
226.16534464488524
21
223.49999999999997
31
-7.2767359417937488e-12
0
LINE
5
121
100
AcDbEntity
8
BEND_EXTENT
100
AcDbLine
10
224.72900848366396
20
-5.3451805740834743e-14
30
-7.2346533325203707e-12
11
224.72900848366396
21
223.49999999999994
31
-7.1280719221563556e-12
0
LINE
5
122
100
AcDbEntity
8
BEND_EXTENT
100
AcDbLine
10
30.230000000000086
20
-2.6914278205031843e-14
30
-9.3919373313169725e-13
11
30.230000000000139
21
239.50000000000003
31
-8.9034392004819238e-13
0
LINE
5
123
100
AcDbEntity
8
BEND_EXTENT
100
AcDbLine
10
31.666336161221444
20
239.49999999999994
30
-9.4574920561707277e-13
11
31.666336161221373
21
-3.5527136788005009e-14
31
-9.9903991079907826e-13
0
LINE
5
124
100
AcDbEntity
8
BEND_EXTENT
100
AcDbLine
10
84.396336161221427
20
-3.4091709190607789e-14
30
-3.7017454805661543e-12
11
84.396336161221484
21
239.5
31
-3.6484547753841485e-12
0
LINE
5
125
100
AcDbEntity
8
BEND_EXTENT
100
AcDbLine
10
171.99900848366394
20
-4.5267300110987516e-14
30
-6.5214674228815753e-12
11
171.99900848366394
21
239.5
31
-6.4681767176995678e-12
0
LINE
5
126
100
AcDbEntity
8
BEND_EXTENT
100
AcDbLine
10
170.56267232244267
20
-4.3159581880618923e-14
30
-6.4838257057066986e-12
11
170.56267232244269
21
239.49999999999994
31
-6.4838257057066994e-12
0
LINE
5
127
100
AcDbEntity
8
BEND_EXTENT
100
AcDbLine
10
85.832672322442704
20
239.49999999999994
30
-3.7482689819380331e-12
11
85.832672322442676
21
-3.5527136788005009e-14
31
-3.7482689819380323e-12
0
ENDSEC
0
SECTION
2
OBJECTS
0
DICTIONARY
5
C
100
AcDbDictionary
3
ACAD_GROUP
350
D
3
ACAD_MLINESTYLE
350
17
0
DICTIONARY
5
D
100
AcDbDictionary
0
DICTIONARY
5
1A
330
C
100
AcDbDictionary
0
DICTIONARY
5
17
100
AcDbDictionary
0
ENDSEC
0
EOF
